<?xml version="1.0" encoding="UTF-8" standalone="no"?>
<!-- Created with Inkscape (http://www.inkscape.org/) -->
<svg
   xmlns:dc="http://purl.org/dc/elements/1.1/"
   xmlns:cc="http://creativecommons.org/ns#"
   xmlns:rdf="http://www.w3.org/1999/02/22-rdf-syntax-ns#"
   xmlns:svg="http://www.w3.org/2000/svg"
   xmlns="http://www.w3.org/2000/svg"
   xmlns:sodipodi="http://sodipodi.sourceforge.net/DTD/sodipodi-0.dtd"
   xmlns:inkscape="http://www.inkscape.org/namespaces/inkscape"
   width="210mm"
   height="297mm"
   id="svg2"
   sodipodi:version="0.32"
   inkscape:version="0.46"
   sodipodi:docname="presentaciocredit.svg"
   inkscape:output_extension="org.inkscape.output.svg.inkscape">
  <defs
     id="defs4">
    <inkscape:perspective
       sodipodi:type="inkscape:persp3d"
       inkscape:vp_x="0 : 526.18109 : 1"
       inkscape:vp_y="0 : 1000 : 0"
       inkscape:vp_z="744.09448 : 526.18109 : 1"
       inkscape:persp3d-origin="372.04724 : 350.78739 : 1"
       id="perspective10" />
    <clipPath
       id="clipPath2530"
       clipPathUnits="userSpaceOnUse">
      <path
         id="path2532"
         clip-rule="evenodd"
         d="M 85.02,770.42 L 481.86,770.42 L 481.86,759.08 L 85.02,759.08 L 85.02,770.42 z" />
    </clipPath>
    <clipPath
       id="clipPath2442"
       clipPathUnits="userSpaceOnUse">
      <path
         id="path2444"
         d="M 0,123.26 L 0.23999,123.26 L 0.23999,157.58 L 0,157.58 L 0,123.26 z" />
    </clipPath>
    <clipPath
       id="clipPath2432"
       clipPathUnits="userSpaceOnUse">
      <path
         id="path2434"
         d="M 0,123.02 L 566.94,123.02 L 566.94,123.55998 L 0,123.55998 L 0,123.02 z" />
    </clipPath>
    <clipPath
       id="clipPath2420"
       clipPathUnits="userSpaceOnUse">
      <path
         id="path2422"
         d="M 0,157.04 L 567.18,157.04 L 567.18,157.58001 L 0,157.58001 L 0,157.04 z" />
    </clipPath>
    <inkscape:perspective
       id="perspective2410"
       inkscape:persp3d-origin="372.04724 : 350.78739 : 1"
       inkscape:vp_z="744.09448 : 526.18109 : 1"
       inkscape:vp_y="0 : 1000 : 0"
       inkscape:vp_x="0 : 526.18109 : 1"
       sodipodi:type="inkscape:persp3d" />
    <inkscape:perspective
       id="perspective2479"
       inkscape:persp3d-origin="372.04724 : 350.78739 : 1"
       inkscape:vp_z="744.09448 : 526.18109 : 1"
       inkscape:vp_y="0 : 1000 : 0"
       inkscape:vp_x="0 : 526.18109 : 1"
       sodipodi:type="inkscape:persp3d" />
  </defs>
  <sodipodi:namedview
     id="base"
     pagecolor="#ffffff"
     bordercolor="#666666"
     borderopacity="1.0"
     inkscape:pageopacity="0.0"
     inkscape:pageshadow="2"
     inkscape:zoom="0.7081368"
     inkscape:cx="178.36644"
     inkscape:cy="866.67836"
     inkscape:document-units="px"
     inkscape:current-layer="layer1"
     showgrid="false"
     inkscape:window-width="1280"
     inkscape:window-height="726"
     inkscape:window-x="0"
     inkscape:window-y="25" />
  <metadata
     id="metadata7">
    <rdf:RDF>
      <cc:Work
         rdf:about="">
        <dc:format>image/svg+xml</dc:format>
        <dc:type
           rdf:resource="http://purl.org/dc/dcmitype/StillImage" />
      </cc:Work>
    </rdf:RDF>
  </metadata>
  <g
     inkscape:label="Capa 1"
     inkscape:groupmode="layer"
     id="layer1">
    <g
       id="g3056"
       transform="translate(11.297252,0)">
      <g
         id="g3122">
        <path
           d="M 680.25,268.7113 C 679.78875,256.94505 663.06375,256.9163 662.55,268.7113 C 663.1125,280.4938 679.75625,280.43505 680.25,268.7113"
           style="fill:#e6e6e6;fill-opacity:1;fill-rule:evenodd;stroke:none"
           id="path2448" />
        <path
           d="M 680.25,305.8363 C 679.7775,294.14005 663.07125,294.11755 662.55,305.8363 C 663.0575,317.63755 679.79375,317.6113 680.25,305.8363"
           style="fill:#e6e6e6;fill-opacity:1;fill-rule:evenodd;stroke:none"
           id="path2450" />
        <path
           d="M 680.25,343.0363 C 679.815,331.2938 663.03625,331.2663 662.55,343.0363 C 663.0675,354.8263 679.78375,354.7988 680.25,343.0363"
           style="fill:#e6e6e6;fill-opacity:1;fill-rule:evenodd;stroke:none"
           id="path2452" />
        <path
           d="M 680.25,380.2363 C 679.78875,368.47005 663.06375,368.4413 662.55,380.2363 C 663.0675,391.9663 679.7825,391.9413 680.25,380.2363"
           style="fill:#e6e6e6;fill-opacity:1;fill-rule:evenodd;stroke:none"
           id="path2454" />
        <path
           d="M 680.25,417.3613 C 679.76875,405.65255 663.09875,405.5963 662.55,417.3613 C 663.06375,429.1563 679.78875,429.1263 680.25,417.3613"
           style="fill:#e6e6e6;fill-opacity:1;fill-rule:evenodd;stroke:none"
           id="path2456" />
        <path
           d="M 680.25,491.7613 C 679.85,479.98755 662.995,479.9713 662.55,491.7613 C 663.07125,503.48005 679.7775,503.45755 680.25,491.7613"
           style="fill:#e6e6e6;fill-opacity:1;fill-rule:evenodd;stroke:none"
           id="path2458" />
        <path
           d="M 680.25,528.8863 C 679.75625,517.16255 663.1125,517.10255 662.55,528.8863 C 663.06375,540.6813 679.78875,540.6513 680.25,528.8863"
           style="fill:#e6e6e6;fill-opacity:1;fill-rule:evenodd;stroke:none"
           id="path2460" />
        <path
           d="M 680.25,566.0863 C 679.78375,554.32255 663.0675,554.29505 662.55,566.0863 C 663.1425,577.8913 679.7275,577.8288 680.25,566.0863"
           style="fill:#e6e6e6;fill-opacity:1;fill-rule:evenodd;stroke:none"
           id="path2462" />
        <path
           d="M 680.25,603.2863 C 679.805,591.4963 663.04375,591.47255 662.55,603.2863 C 663.07125,615.00505 679.7775,614.98255 680.25,603.2863"
           style="fill:#e6e6e6;fill-opacity:1;fill-rule:evenodd;stroke:none"
           id="path2464" />
        <path
           d="M 680.25,751.9363 C 679.7275,740.19255 663.1425,740.1313 662.55,751.9363 C 663.06875,763.7263 679.78375,763.6988 680.25,751.9363"
           style="fill:#e6e6e6;fill-opacity:1;fill-rule:evenodd;stroke:none"
           id="path2466" />
        <path
           d="M 680.25,789.1363 C 679.78375,777.37255 663.06875,777.34505 662.55,789.1363 C 663.1425,800.9413 679.7275,800.8788 680.25,789.1363"
           style="fill:#e6e6e6;fill-opacity:1;fill-rule:evenodd;stroke:none"
           id="path2468" />
        <path
           d="M 680.25,454.5613 C 679.7675,442.79005 663.06,442.7763 662.55,454.5613 C 663.1075,466.34255 679.7275,466.3163 680.25,454.5613"
           style="fill:#e6e6e6;fill-opacity:1;fill-rule:evenodd;stroke:none"
           id="path2480" />
        <path
           d="M 680.25,640.4113 C 679.75625,628.67505 663.0775,628.6513 662.55,640.4113 C 663.03375,652.19255 679.79375,652.1788 680.25,640.4113"
           style="fill:#e6e6e6;fill-opacity:1;fill-rule:evenodd;stroke:none"
           id="path2482" />
        <path
           d="M 680.25,677.6113 C 679.7675,665.84005 663.06,665.8263 662.55,677.6113 C 663.1075,689.39255 679.7275,689.3663 680.25,677.6113"
           style="fill:#e6e6e6;fill-opacity:1;fill-rule:evenodd;stroke:none"
           id="path2484" />
        <path
           d="M 680.25,714.8113 C 679.8375,703.0438 663.01625,702.9813 662.55,714.8113 C 663.07,726.51255 679.75,726.50505 680.25,714.8113"
           style="fill:#e6e6e6;fill-opacity:1;fill-rule:evenodd;stroke:none"
           id="path2486" />
        <path
           d="M 680.25,826.2613 C 679.755,814.5913 663.09625,814.53255 662.55,826.2613 C 663.01625,838.09005 679.8375,838.02755 680.25,826.2613"
           style="fill:#e6e6e6;fill-opacity:1;fill-rule:evenodd;stroke:none"
           id="path2488" />
        <path
           d="M 660,235.8613 L 661.35,236.9113 L 661.35,236.8363 L 662.025,237.2863 L 662.775,237.7363 L 662.7,237.7363 L 663.525,238.1113 L 664.275,238.4863 L 664.2,238.4113 L 665.85,239.0113 L 665.775,239.0113 L 666.6,239.2363 L 667.425,239.3863 L 669.225,239.6863 L 669.15,239.6863 L 670.05,239.7613 L 669.975,239.7613 L 671.775,239.7613 L 672.675,239.6863 L 672.6,239.6863 L 674.4,239.3863 L 675.225,239.2363 L 675.15,239.2363 L 675.975,239.0113 L 675.9,239.0113 L 677.55,238.4113 L 677.475,238.4863 L 678.225,238.1113 L 678.3,238.1113 L 679.125,237.7363 L 679.05,237.7363 L 679.725,237.2863 L 680.475,236.8363 L 680.4,236.9113 L 682.425,235.3363 L 682.35,235.3363 L 683.55,234.1363 L 683.55,234.2113 L 685.125,232.1863 L 685.05,232.2613 L 685.5,231.5113 L 685.95,230.8363 L 685.95,230.9113 L 686.325,230.0863 L 686.325,230.0113 L 686.7,229.2613 L 686.625,229.3363 L 687.225,227.6863 L 687.225,227.7613 L 687.45,226.9363 L 687.45,227.0113 L 688.725,227.2363 L 688.65,227.2363 C 688.28875,228.73755 687.495,230.97505 686.55,232.1863 L 686.625,232.1863 L 686.175,232.9363 L 686.1,232.9363 L 684.525,234.9613 L 684.45,235.0363 L 683.175,236.3113 L 681.15,237.8863 L 681.15,237.9613 L 680.4,238.4113 L 680.4,238.3363 C 679.18875,239.2813 676.95125,240.07505 675.45,240.4363 L 675.45,240.5113 C 671.2475,241.5238 666.8,241.09505 662.925,239.2363 L 663,239.2363 L 662.175,238.8613 L 662.1,238.8613 L 661.35,238.4113 L 661.35,238.3363 L 660.675,237.8863 L 660.6,237.8863 L 659.25,236.8363"
           style="fill:#9a9a9a;fill-opacity:1;fill-rule:nonzero;stroke:none"
           id="path2496" />
        <path
           d="M 687.45,227.0113 L 687.6,226.1863 L 687.75,225.2863 L 687.9,224.3863 L 687.9,224.4613 L 687.975,223.5613 L 687.975,222.6613 L 689.25,222.6613 C 689.3325,224.25755 688.99375,225.6688 688.725,227.2363"
           style="fill:#9a9a9a;fill-opacity:1;fill-rule:nonzero;stroke:none"
           id="path2498" />
      </g>
      <path
         id="path2414"
         style="fill:#9a9a9a;fill-opacity:1;fill-rule:nonzero;stroke:none"
         d="M -9.5840458,885.5863 L 708.90005,885.5863 L 708.90005,843.0613 L -9.5840458,843.0613 L -9.5840458,885.5863 z"
         sodipodi:nodetypes="ccccc" />
      <path
         id="path2426"
         style="fill:#9a9a9a;fill-opacity:1;fill-rule:nonzero;stroke:none"
         d="M 708.3,885.8863 L 708.90005,885.8863 L 708.90005,843.0613 L 708.3,843.0613 L 708.3,885.8863 z" />
      <g
         transform="matrix(1.25,0,0,-1.25,0,1039.7363)"
         id="g2428">
        <g
           clip-path="url(#clipPath2432)"
           id="g2430">
          <path
             id="path2436"
             style="fill:#9a9a9a;fill-opacity:1;fill-rule:nonzero;stroke:none"
             d="M 0,123.08 L 566.88,123.08 L 566.88,123.55995 L 0,123.55995 L 0,123.08 z" />
        </g>
      </g>
      <g
         transform="matrix(1.25,0,0,-1.25,0,1039.7363)"
         id="g2438">
        <g
           clip-path="url(#clipPath2442)"
           id="g2440">
          <path
             id="path2446"
             style="fill:#9a9a9a;fill-opacity:1;fill-rule:nonzero;stroke:none"
             d="M 0,123.32 L 0.17999,123.32 L 0.17999,157.58 L 0,157.58 L 0,123.32 z" />
        </g>
      </g>
      <g
         id="g3142">
        <g
           id="g2416"
           transform="matrix(1.25,0,0,-1.25,0,1039.7363)">
          <g
             id="g2418"
             clip-path="url(#clipPath2420)">
            <path
               d="M 0,157.1 L 567.12,157.1 L 567.12,157.57998 L 0,157.57998 L 0,157.1 z"
               style="fill:#9a9a9a;fill-opacity:1;fill-rule:nonzero;stroke:none"
               id="path2424" />
          </g>
        </g>
        <path
           d="M 680.25,863.4613 C 679.7275,851.71755 663.1425,851.6563 662.55,863.4613 C 663.06875,875.2513 679.78375,875.2238 680.25,863.4613"
           style="fill:#ffffff;fill-opacity:1;fill-rule:evenodd;stroke:none"
           id="path2470" />
      </g>
      <g
         id="g3148">
        <path
           d="M 680.25,900.6613 C 679.78875,888.89505 663.06375,888.8663 662.55,900.6613 C 663.1425,912.4663 679.7275,912.4038 680.25,900.6613"
           style="fill:#4d4d4d;fill-opacity:1;fill-rule:evenodd;stroke:none"
           id="path2472" />
        <path
           d="M 680.25,937.7863 C 679.7775,926.0888 663.07125,926.06755 662.55,937.7863 C 663.04375,949.5988 679.805,949.5763 680.25,937.7863"
           style="fill:#4d4d4d;fill-opacity:1;fill-rule:evenodd;stroke:none"
           id="path2474" />
        <path
           d="M 680.25,974.9863 C 679.7275,963.24255 663.1425,963.1813 662.55,974.9863 C 663.06875,986.7763 679.78375,986.7488 680.25,974.9863"
           style="fill:#4d4d4d;fill-opacity:1;fill-rule:evenodd;stroke:none"
           id="path2476" />
        <path
           d="M 680.25,1012.1863 C 679.78875,1000.4201 663.06375,1000.3913 662.55,1012.1863 C 663.1125,1023.9688 679.75625,1023.9101 680.25,1012.1863"
           style="fill:#4d4d4d;fill-opacity:1;fill-rule:evenodd;stroke:none"
           id="path2478" />
      </g>
      <path
         id="path2490"
         style="fill:#9a9a9a;fill-opacity:1;fill-rule:evenodd;stroke:none"
         d="M 688.575,222.6613 C 687.58,199.13005 654.1575,199.14005 653.175,222.6613 C 654.115,246.1613 687.6225,246.17005 688.575,222.6613" />
      <path
         id="path2492"
         style="fill:#9a9a9a;fill-opacity:1;fill-rule:nonzero;stroke:none"
         d="M 687.975,222.6613 L 687.975,221.7613 L 687.975,221.8363 L 687.9,220.9363 L 687.9,221.0113 L 687.6,219.2113 L 687.45,218.3863 L 687.225,217.5613 L 687.225,217.6363 L 686.925,216.8113 L 686.625,215.9863 L 686.7,216.0613 L 686.325,215.3113 L 685.95,214.4863 L 685.95,214.5613 L 685.5,213.8113 L 685.05,213.1363 L 685.125,213.1363 L 683.55,211.1113 L 683.55,211.1863 L 682.35,209.9863 L 682.425,210.0613 L 680.4,208.4863 L 680.475,208.5613 L 679.725,208.1113 L 679.725,208.0363 L 679.05,207.5863 L 679.125,207.6613 L 678.3,207.2863 L 678.225,207.2863 L 677.475,206.9113 L 677.55,206.9113 L 675.9,206.3113 L 675.975,206.3113 L 675.15,206.0863 L 675.225,206.1613 L 674.4,206.0113 L 674.325,205.9363 L 673.425,205.7113 L 673.575,205.7863 L 671.775,205.6363 L 669.975,205.6363 L 670.05,205.6363 L 668.25,205.7863 L 668.325,205.7113 L 667.425,205.9363 L 667.425,206.0113 L 666.6,206.1613 L 666.6,206.0863 L 665.775,206.3113 L 665.85,206.3113 L 664.2,206.9113 L 664.275,206.9113 L 663.525,207.2863 L 663,206.1613 L 662.925,206.1613 C 664.1575,205.44505 665.77625,204.92755 667.2,204.7363 L 667.125,204.7363 C 671.91625,203.6913 677.11,204.6863 681.15,207.4363 L 681.15,207.5113 L 683.175,209.0863 L 683.25,209.0863 L 683.85,209.6863 C 684.77375,210.53005 685.89375,212.07005 686.55,213.1363 L 686.625,213.1363 L 687.075,213.8863 L 687.075,213.9613 L 687.45,214.7863 L 687.45,214.7113 C 688.58625,217.0563 689.29625,220.0463 689.25,222.6613" />
      <path
         id="path2494"
         style="fill:#9a9a9a;fill-opacity:1;fill-rule:nonzero;stroke:none"
         d="M 663.525,207.2863 L 662.7,207.6613 L 662.775,207.6613 L 662.025,208.1113 L 662.025,208.0363 L 661.35,208.4863 L 659.325,210.0613 L 659.4,209.9863 L 658.2,211.1863 L 658.275,211.1113 L 656.7,213.1363 L 656.25,213.8113 L 656.325,213.8113 L 655.875,214.5613 L 655.875,214.4863 L 655.5,215.3113 L 655.125,216.0613 L 655.125,215.9863 L 654.525,217.6363 L 654.525,217.5613 L 654.3,218.3863 L 654.375,218.3863 L 654.225,219.2113 L 654.15,219.2113 L 653.925,220.1113 L 654,220.0363 L 653.925,220.9363 L 653.85,221.8363 L 653.85,221.7613 L 653.85,223.5613 L 653.925,224.4613 L 654,225.3613 L 653.925,225.2113 L 654.15,226.1113 L 654.225,226.1863 L 654.375,227.0113 L 654.3,226.9363 L 654.525,227.7613 L 654.525,227.6863 L 654.825,228.5113 L 655.125,229.3363 L 655.125,229.2613 L 655.5,230.0113 L 655.5,230.0863 L 655.875,230.9113 L 655.8,230.8363 L 656.25,231.5113 L 656.325,231.5113 L 656.775,232.2613 L 656.7,232.1863 L 658.275,234.2113 L 658.2,234.1363 L 659.4,235.3363 L 659.325,235.3363 L 660,235.8613 L 659.25,236.8363 L 658.575,236.3113 L 658.5,236.2363 L 657.3,235.0363 L 657.3,234.9613 L 655.725,232.9363 L 655.65,232.9363 C 652.90125,228.8963 651.905,223.70255 652.95,218.9113 L 652.95,218.9863 C 653.14125,217.56255 653.66,215.9438 654.375,214.7113 L 654.375,214.7863 C 655.9725,211.1438 659.35875,207.75755 663,206.1613" />
      <path
         id="path2500"
         style="fill:#4d4d4d;fill-opacity:1;fill-rule:evenodd;stroke:none"
         d="M 698.1,158.9113 C 698.16,144.28505 686.17375,132.2638 671.55,132.3613 C 656.97125,132.2388 644.8775,144.33255 645,158.9113 C 644.9025,173.5338 656.92375,185.52005 671.55,185.4613 C 686.22,185.4963 698.135,173.5813 698.1,158.9113" />
      <path
         id="path2502"
         style="fill:#4d4d4d;fill-opacity:1;fill-rule:nonzero;stroke:none"
         d="M 697.5,158.9113 L 697.5,157.5613 L 697.5,157.6363 L 697.35,156.2863 L 697.2,154.9363 L 697.2,155.0113 L 696.975,153.7363 L 696.675,152.3863 L 696.675,152.4613 L 696.3,151.2613 L 695.925,149.9863 L 695.925,150.0613 L 694.875,147.6613 L 694.95,147.6613 L 694.425,146.5363 L 694.425,146.6113 L 693.75,145.4863 L 693.075,144.4363 L 692.325,143.3863 L 692.4,143.4613 L 689.925,140.5363 L 690,140.6113 L 687.075,138.1363 L 686.025,137.3863 L 686.1,137.3863 L 685.05,136.7113 L 685.05,136.7863 L 683.925,136.1113 L 684,136.1113 L 682.875,135.5863 L 682.8,135.5863 L 681.6,134.9863 L 681.675,134.9863 L 680.475,134.5363 L 680.55,134.5363 L 679.275,134.1613 L 678.075,133.7863 L 678.075,133.8613 L 676.725,133.5613 L 676.8,133.5613 L 675.525,133.3363 L 674.175,133.1113 L 674.25,133.1113 L 672.9,133.0363 L 670.2,133.0363 L 670.275,133.0363 L 668.925,133.1113 L 669,133.1113 L 667.65,133.3363 L 666.375,133.5613 L 665.025,133.8613 L 665.1,133.7863 L 663.9,134.1613 L 662.625,134.5363 L 661.425,134.9863 L 661.5,134.9863 L 660.3,135.5863 L 659.775,134.4613 L 659.7,134.4613 C 672.04375,128.2788 687.81,132.8713 694.8,144.8113 L 694.875,144.8113 C 696.22875,147.0588 697.19625,149.5463 697.875,152.0863 L 697.95,152.0863 C 698.42625,154.1313 698.8575,156.82505 698.775,158.9113" />
      <path
         id="path2504"
         style="fill:#4d4d4d;fill-opacity:1;fill-rule:nonzero;stroke:none"
         d="M 660.3,135.5863 L 659.175,136.1113 L 659.25,136.1113 L 658.125,136.7863 L 658.125,136.7113 L 657.075,137.3863 L 656.025,138.1363 L 656.1,138.1363 L 653.175,140.6113 L 653.25,140.5363 L 650.775,143.4613 L 650.775,143.3863 L 650.025,144.4363 L 649.35,145.4863 L 649.425,145.4863 L 648.75,146.6113 L 648.75,146.5363 L 648.225,147.6613 L 647.625,148.8613 L 647.625,148.7863 L 647.175,149.9863 L 646.8,151.2613 L 646.425,152.4613 L 646.5,152.3863 L 646.2,153.7363 L 645.975,155.0113 L 645.75,156.3613 L 645.75,156.2863 L 645.675,157.6363 L 645.675,157.5613 L 645.675,160.2613 L 645.75,161.6113 L 645.75,161.5363 L 645.975,162.8863 L 646.2,164.1613 L 646.2,164.0863 L 646.5,165.4363 L 646.425,165.4363 L 646.8,166.6363 L 647.175,167.9113 L 647.175,167.8363 L 647.625,169.0363 L 647.625,168.9613 L 648.225,170.1613 L 648.225,170.2363 L 648.75,171.3613 L 648.75,171.2863 L 649.425,172.4113 L 649.35,172.4113 L 650.025,173.4613 L 650.025,173.3863 L 650.775,174.4363 L 653.25,177.3613 L 653.175,177.2863 L 655.125,178.9363 L 654.3,179.9113 C 644.6075,172.2888 641.5825,158.03005 647.1,147.0613 L 647.1,147.1363 C 647.70125,145.59255 648.77625,143.99255 649.725,142.6363 L 649.8,142.6363 L 652.275,139.7113 L 652.35,139.6363 L 655.275,137.1613 L 655.275,137.0863 C 656.63125,136.13755 658.23125,135.0613 659.775,134.4613" />
      <path
         id="path2506"
         style="fill:#4d4d4d;fill-opacity:1;fill-rule:nonzero;stroke:none"
         d="M 655.125,178.9363 L 656.1,179.7613 L 656.025,179.6863 L 657.075,180.4363 L 658.125,181.1113 L 659.25,181.7863 L 659.175,181.7863 L 660.3,182.3113 L 660.3,182.2363 L 662.7,183.2863 L 662.625,183.2863 L 663.9,183.6613 L 665.1,184.0363 L 665.025,184.0363 L 666.375,184.3363 L 667.65,184.5613 L 667.575,184.5613 L 670.275,184.8613 L 670.2,184.8613 L 672.9,184.8613 L 672.825,184.8613 L 675.525,184.5613 L 676.8,184.3363 L 676.725,184.3363 L 678.075,184.0363 L 679.275,183.6613 L 680.55,183.2863 L 680.475,183.2863 L 682.875,182.2363 L 682.875,182.3113 L 684,181.7863 L 683.925,181.7863 L 685.05,181.1113 L 686.1,180.4363 L 686.025,180.4363 L 687.075,179.6863 L 687.075,179.7613 L 690,177.2863 L 689.925,177.3613 L 692.4,174.4363 L 692.325,174.4363 L 693.075,173.3863 L 693.075,173.4613 L 693.75,172.4113 L 694.425,171.2863 L 694.425,171.3613 L 694.95,170.2363 L 694.875,170.2363 L 695.925,167.8363 L 695.925,167.9113 L 696.3,166.6363 L 696.675,165.4363 L 697.95,165.7363 L 697.875,165.8113 L 697.5,167.0113 L 697.125,168.2863 L 697.125,168.3613 C 696.395,169.89255 695.81625,171.6888 694.875,173.0863 L 694.8,173.0863 C 692.35625,177.0488 689.6875,179.71755 685.725,182.1613 L 685.725,182.2363 C 679.2,185.99255 672.09125,187.11505 664.725,185.3113 L 664.725,185.2363 C 662.185,184.55755 659.6975,183.59005 657.45,182.2363 L 657.45,182.1613 L 656.4,181.4863 L 656.325,181.4863 L 655.275,180.7363 L 654.3,179.9113" />
      <path
         id="path2508"
         style="fill:#4d4d4d;fill-opacity:1;fill-rule:nonzero;stroke:none"
         d="M 696.675,165.4363 L 696.975,164.0863 L 696.975,164.1613 L 697.2,162.8863 L 697.35,161.5363 L 697.5,160.1863 L 697.5,160.2613 L 697.5,158.9113 L 698.775,158.9113 C 698.855,160.9813 698.43625,163.72005 697.95,165.7363" />
      <path
         id="path2510"
         style="fill:#ffffff;fill-opacity:1;fill-rule:nonzero;stroke:none"
         d="M 634.05,111.9613 L 706.65,111.9613 L 706.65,39.3613 L 634.05,39.3613 L 634.05,111.9613 z" />
      <path
         id="path2516"
         style="fill:#ffffff;fill-opacity:1;fill-rule:nonzero;stroke:none"
         d="M 106.275,987.3613 L 521.175,987.3613 L 521.175,954.6613 L 106.275,954.6613 L 106.275,987.3613 z" />
      <g
         transform="matrix(1.25,0,0,-1.25,0,1039.7363)"
         id="g2526">
        <g
           clip-path="url(#clipPath2530)"
           id="g2528">
          <path
             id="path2534"
             style="fill:#000000;fill-opacity:1;fill-rule:nonzero;stroke:none"
             d="M 85.02,769.22 L 85.02,769.7" />
          <path
             id="path2536"
             style="fill:#000000;fill-opacity:1;fill-rule:nonzero;stroke:none"
             d="M 85.02,769.22 L 481.86,769.22 L 481.86,769.69998 L 85.02,769.69998 L 85.02,769.22 z" />
          <path
             id="path2538"
             style="fill:#e6e6e6;fill-opacity:1;fill-rule:nonzero;stroke:none"
             d="M 85.02,765.44 L 85.02,767.42" />
          <path
             id="path2540"
             style="fill:#e6e6e6;fill-opacity:1;fill-rule:nonzero;stroke:none"
             d="M 85.02,765.44 L 481.86,765.44 L 481.86,767.42 L 85.02,767.42 L 85.02,765.44 z" />
        </g>
      </g>
      <text
         xml:space="preserve"
         style="font-size:24.25460625px;font-style:normal;font-variant:normal;font-weight:normal;font-stretch:normal;fill:#333333;fill-opacity:1;stroke:none;stroke-width:1px;stroke-linecap:butt;stroke-linejoin:miter;stroke-opacity:1;font-family:Helvetica;-inkscape-font-specification:Helvetica"
         x="138.52307"
         y="978.45673"
         id="text2629"
         transform="scale(1.0106085,0.9895029)"><tspan
           sodipodi:role="line"
           id="tspan2631"
           x="138.52307"
           y="978.45673"
           style="font-size:14.14851952px;fill:#333333;fill-opacity:1">Generalitat de Catalunya</tspan></text>
      <text
         id="text2633"
         y="983.70099"
         x="140.00688"
         style="font-size:24px;font-style:normal;font-variant:normal;font-weight:normal;font-stretch:normal;line-height:125%;fill:#333333;fill-opacity:1;stroke:none;stroke-width:1px;stroke-linecap:butt;stroke-linejoin:miter;stroke-opacity:1;font-family:Helvetica;-inkscape-font-specification:Helvetica"
         xml:space="preserve"
         sodipodi:linespacing="125%"><tspan
           style="font-size:15px;font-style:normal;font-variant:normal;font-weight:bold;font-stretch:normal;text-align:start;line-height:125%;writing-mode:lr-tb;text-anchor:start;fill:#333333;fill-opacity:1;font-family:Helvetica;-inkscape-font-specification:Helvetica Bold"
           y="983.70099"
           x="140.00688"
           id="tspan2635"
           sodipodi:role="line">Departament d'Educació</tspan></text>
      <path
         d="M 706.64964,75.661437 C 706.73166,55.664388 690.34404,39.228913 670.35041,39.362212 C 650.41832,39.194738 633.88373,55.729337 634.0512,75.661437 C 633.9179,95.65335 650.35338,112.04099 670.35041,111.96066 C 690.40727,112.00851 706.69749,95.7183 706.64964,75.661437"
         style="fill:#000000;fill-opacity:1;fill-rule:evenodd;stroke:none"
         id="path2657" />
      <path
         inkscape:export-ydpi="89"
         inkscape:export-xdpi="89"
         inkscape:export-filename="D:\absis\SIG\propuestas\2 propuesta\capcelera1.png"
         style="font-size:4.28030014px;letter-spacing:0.21701001;word-spacing:-0.0012841;fill:#333333;fill-opacity:1;fill-rule:nonzero;stroke:none;stroke-width:0.062;stroke-linecap:butt;stroke-linejoin:miter;stroke-miterlimit:4;stroke-dasharray:none;display:inline"
         id="path6409"
         d="M 112.085,955.10031 C 110.69678,955.33169 110.96081,955.5699 110.3246,955.8591 C 109.71732,956.14829 109.89394,954.96144 109.77823,955.22171 C 109.57584,955.68444 108.86337,955.94301 108.77669,955.79839 C 107.09928,954.75729 107.11443,955.45708 107.25907,955.91981 C 108.01099,957.27906 107.60179,957.59343 107.16797,957.68019 C 107.48618,957.88261 107.80103,958.10053 107.71435,958.62109 C 107.56971,958.76569 107.31261,959.35354 107.16797,960.04762 C 107.13915,961.4647 107.1117,964.90673 107.19837,964.96456 C 107.28505,965.02239 107.28947,964.96456 107.28947,964.96456 C 107.08698,964.87779 108.6553,961.7473 108.6553,961.7473 C 108.6553,961.7473 109.63359,960.65808 109.77823,959.50129 C 109.89394,958.34449 110.90127,958.74251 110.90127,958.74251 C 110.58306,957.78813 111.29585,957.68019 111.29585,957.68019 C 111.72956,957.79587 112.93475,957.13387 112.93475,957.13387 C 113.86024,956.12165 116.57695,955.25207 116.57695,955.25207 L 116.57695,955.10031 L 112.085,955.10031 z M 123.0115,955.10031 L 123.0115,955.25207 C 123.0115,955.25207 125.69791,956.12165 126.6233,957.13387 C 126.6233,957.13387 127.90959,957.79587 128.14091,957.68019 C 128.14091,957.68019 128.9693,957.99485 128.53549,958.83355 C 128.53549,958.83355 129.65706,958.06388 129.62813,959.6834 C 129.5993,960.2618 130.72076,961.7473 130.72076,961.7473 C 130.72076,961.7473 132.08944,964.49468 132.14729,964.81281 C 132.14729,964.81281 132.3034,965.59765 132.39008,965.51089 C 132.47686,965.45306 132.32801,961.43436 132.29908,960.01726 C 132.15444,959.35211 132.01885,958.76569 131.8741,958.62109 C 131.18015,958.12944 131.6471,957.85231 131.9652,957.64984 C 131.70495,957.59201 131.51424,957.32771 131.60091,956.95175 C 131.65887,956.69147 131.91744,956.38252 132.17769,955.91981 C 132.2934,955.39925 132.39818,954.6055 130.72076,955.64664 C 130.66291,955.79124 130.39583,955.69016 129.96201,955.34313 C 129.73069,955.14069 129.99988,955.65524 129.53704,955.82875 C 129.1901,955.94444 129.31813,955.33169 127.95883,955.10031 L 123.0115,955.10031 z M 112.81336,955.22171 C 113.5678,955.22054 114.41513,955.32144 115.42362,955.34313 C 114.20896,955.57449 111.35002,956.37048 109.99072,956.89106 C 109.90404,956.91997 109.8101,956.9157 109.83893,956.8 C 110.6162,955.48053 111.55599,955.2237 112.81336,955.22171 z M 125.98592,955.25207 C 127.72256,955.19106 129.10321,955.28176 129.68883,956.64823 C 129.68883,956.76391 129.65421,956.91997 129.56744,956.89106 C 128.20824,956.37048 125.3492,955.57449 124.13453,955.34313 C 124.77085,955.32867 125.40716,955.2724 125.98592,955.25207 z M 131.8741,955.37348 L 130.50828,956.70894 C 130.36374,956.9403 130.20028,956.43894 130.72076,955.88945 C 131.18361,955.39779 131.61396,955.40239 131.8741,955.37348 z M 119.85497,955.40383 C 113.0573,955.40381 107.41087,961.82654 107.41087,969.6387 C 107.41087,977.45085 113.0573,983.87356 119.85497,983.87356 C 126.65264,983.87356 132.08659,977.44103 132.08659,969.6387 C 132.08659,961.83635 126.65264,955.40383 119.85497,955.40383 z M 107.41087,955.55558 L 108.86768,956.92141 C 108.75207,957.15278 108.46027,957.09634 108.20002,956.95175 C 107.91074,956.77823 107.20837,955.7291 107.41087,955.55558 z M 109.56574,955.82875 C 109.39228,956.11796 109.41405,956.61789 109.41405,956.61789 C 109.41405,956.61789 109.20304,956.56006 109.23196,956.61789 C 109.28982,956.6468 109.2205,956.15402 108.98907,955.98051 C 109.19157,956.00941 109.50788,955.82875 109.56574,955.82875 z M 130.02271,955.82875 C 129.84925,955.94444 130.05164,956.61931 130.02271,956.64823 C 130.05164,956.61932 129.81021,956.64822 129.81021,956.64823 C 129.81021,956.64823 129.8017,956.2697 129.62813,955.98051 C 129.83062,955.98051 129.73354,955.85767 130.02271,955.82875 z M 119.85497,956.52683 C 120.20537,956.52683 120.5443,956.54996 120.88691,956.58754 L 120.88691,957.04281 C 120.55398,957.00506 120.22651,956.9821 119.88527,956.9821 C 119.44766,956.9821 119.00512,957.01212 118.58014,957.07316 L 118.58014,956.61789 C 119.00301,956.56063 119.42074,956.52683 119.85497,956.52683 z M 130.1137,956.76965 C 130.34522,956.76967 130.50828,956.99212 130.50828,957.19457 C 130.50828,957.42594 130.34522,957.58914 130.1137,957.58914 C 129.88237,957.58916 129.68883,957.42592 129.68883,957.19457 C 129.68883,956.99215 129.88237,956.76965 130.1137,956.76965 z M 109.35336,956.83035 C 109.55575,956.83035 109.77823,957.02392 109.77823,957.25527 C 109.77823,957.45773 109.55575,957.64984 109.35336,957.64984 C 109.12193,957.64985 108.92838,957.45773 108.92838,957.25527 C 108.92838,957.02392 109.12193,956.83035 109.35336,956.83035 z M 107.95713,956.92141 C 108.18856,957.18169 108.71599,957.28562 108.71599,957.28562 C 108.71599,957.28564 108.62637,957.49665 108.6553,957.46772 C 108.71315,957.40987 108.03676,957.38529 107.80544,957.55878 C 107.89212,957.35636 107.9282,957.00815 107.95713,956.92141 z M 131.35813,956.92141 C 131.38716,957.00815 131.45206,957.29566 131.50993,957.49809 C 131.24967,957.46916 130.89718,957.46344 130.78146,957.37668 C 130.83943,957.43451 130.72076,957.25529 130.72076,957.25527 C 130.72076,957.25527 131.12681,957.18169 131.35813,956.92141 z M 123.58816,957.28562 C 124.41519,957.63196 125.16931,958.09623 125.89483,958.65145 L 125.89483,959.19778 C 125.18236,958.61602 124.40961,958.16732 123.58816,957.80161 L 123.58816,957.28562 z M 115.87889,957.37668 L 115.87889,957.923 C 115.05565,958.31576 114.2545,958.80488 113.54182,959.41023 L 113.54182,958.8032 C 114.27028,958.22824 115.05271,957.74429 115.87889,957.37668 z M 119.88527,957.43738 C 120.21957,957.43738 120.5605,957.45993 120.88691,957.49809 L 120.88691,981.96141 C 120.5604,981.99898 120.21978,982.02212 119.88527,982.02212 C 119.44567,982.02212 119.00733,981.99487 118.58014,981.93107 L 118.58014,957.52843 C 119.00712,957.46361 119.44588,957.43738 119.88527,957.43738 z M 129.62813,957.55878 C 129.5993,957.79017 129.04284,958.09194 128.86937,958.43898 C 128.81151,958.3233 128.884,957.74088 128.56579,957.7409 C 128.59471,957.7409 129.22324,957.58772 129.62813,957.55878 z M 108.98907,957.68019 C 109.07586,957.65125 109.08017,957.77553 109.08017,957.8623 C 108.50171,959.19263 107.64218,962.05022 107.41087,963.26488 C 107.41087,960.57529 106.84893,958.89485 108.98907,957.68019 z M 109.65684,957.7409 C 109.97505,957.94334 110.50238,958.46933 110.41559,958.46933 C 110.12642,958.44039 109.89689,958.65719 109.83893,958.77285 C 109.86786,958.42584 109.68577,957.97227 109.65684,957.7409 z M 129.99231,957.77125 L 130.23509,957.77125 C 130.78472,959.24617 131.4346,962.19913 131.75271,963.35594 C 130.82733,961.158 129.09585,960.17163 129.99231,957.77125 z M 123.58816,958.28723 C 124.40867,958.67189 125.19004,959.16364 125.89483,959.77445 L 125.89483,979.7154 C 125.18794,980.32014 124.41161,980.82313 123.58816,981.20263 L 123.58816,958.28723 z M 115.84849,958.40862 C 115.85722,958.40428 115.87027,958.41294 115.87889,958.40862 L 115.87889,981.05086 C 115.04713,980.6394 114.25282,980.10899 113.54182,979.4726 L 113.54182,960.01726 C 114.24567,959.37913 115.0263,958.82434 115.84849,958.40862 z M 128.65689,961.59555 C 130.12149,963.80923 130.99395,966.59627 130.99395,969.6387 C 130.99395,972.67788 130.11875,975.46316 128.65689,977.68185 L 128.65689,977.07482 C 129.90174,975.00389 130.62977,972.48235 130.62977,969.79045 C 130.62977,967.08743 129.90131,964.54335 128.65689,962.44539 L 128.65689,961.59555 z M 110.84057,961.808 L 110.84057,962.6882 C 109.656,964.73671 108.95878,967.1927 108.95878,969.79045 C 108.95878,972.37754 109.65568,974.80934 110.84057,976.832 L 110.84057,977.49975 C 109.40837,975.30844 108.5338,972.59789 108.5338,969.6387 C 108.5338,966.68426 109.41258,963.99155 110.84057,961.808 z M 128.65689,963.35594 C 129.63329,965.24186 130.2048,967.44523 130.2048,969.79045 C 130.2048,972.12546 129.63296,974.29726 128.65689,976.16427 L 128.65689,963.35594 z M 110.84057,963.59873 L 110.84057,975.92146 C 109.91856,974.10937 109.38365,972.02169 109.38365,969.79045 C 109.38365,967.54946 109.91824,965.42883 110.84057,963.59873 z M 132.42048,974.00931 C 132.33369,973.92255 132.23839,974.52529 132.23839,974.52529 C 132.20956,974.87233 130.87256,977.46938 130.87256,977.46939 C 130.87256,977.46939 129.84061,978.98523 129.84061,979.56365 C 129.84061,980.83614 128.86937,980.26172 128.86937,980.26173 C 129.36105,981.24502 128.53549,981.47579 128.53549,981.47579 C 127.52333,981.53363 126.68399,982.26492 126.68399,982.26494 C 125.67193,983.21931 123.43637,984.02531 123.43637,984.02533 L 123.43637,984.14673 L 127.83733,984.05567 C 129.22566,983.85325 129.1901,983.3951 129.53704,983.5397 C 130.11549,983.5686 129.88533,983.7347 130.1744,983.99498 C 130.83964,983.24305 130.79156,983.60042 130.99395,983.6004 C 132.87385,984.43907 132.56511,983.66428 132.42048,983.11478 C 132.16022,982.68096 131.99276,982.61482 131.9348,982.32564 C 131.84812,981.97857 132.25133,981.53362 132.51146,981.47579 C 132.19336,981.27335 131.79026,980.97298 131.9348,980.62595 C 132.05051,980.45242 132.30624,979.89495 132.45078,979.22978 C 132.4798,977.8127 132.50726,974.06716 132.42048,974.00931 z M 107.25907,974.40388 C 107.25907,974.40388 107.02765,977.90661 107.25907,979.38155 C 107.40371,980.04671 107.84289,980.847 107.98753,981.02052 C 108.07421,981.5411 107.57865,981.60723 107.28947,981.80966 C 107.20269,981.78075 108.61837,982.09084 107.25907,983.47899 C 107.08561,983.94173 107.06899,984.8179 108.74629,983.66111 C 108.80415,983.51652 109.57584,983.71435 109.77823,984.17709 C 109.89394,984.43735 109.71732,983.25049 110.3246,983.5397 C 110.96081,983.82889 110.63892,983.74472 112.085,984.20744 C 113.15503,984.35204 116.27347,984.23778 116.27347,984.23779 L 116.30377,984.05567 C 116.30377,984.05567 114.49655,983.54029 112.93475,982.32564 C 112.93475,982.32564 111.54747,981.66218 111.11376,981.74896 C 111.11376,981.74896 110.4096,981.43713 110.90127,980.6563 C 110.20721,980.88766 110.10075,980.64629 109.86933,980.44385 C 109.86933,980.44385 109.91004,979.73031 109.50504,978.80485 C 109.30265,978.68918 107.7275,975.93665 107.38046,974.40388 L 107.25907,974.40388 z M 132.14729,975.34478 C 131.85811,976.50159 131.37601,979.998 130.50828,981.4151 L 130.26549,981.38475 C 129.4269,979.3314 130.61453,978.49708 132.14729,975.34478 z M 107.41087,975.73936 C 107.67111,977.12754 108.29932,980.26543 109.08017,981.56685 C 109.08017,981.62469 109.07586,981.74895 108.98907,981.74896 C 106.93571,980.3608 107.38194,978.42893 107.41087,975.73936 z M 113.54182,980.01892 C 114.26408,980.62691 115.0424,981.14499 115.87889,981.5365 L 115.87889,981.90072 C 115.05344,981.52766 114.26965,981.05085 113.54182,980.4742 L 113.54182,980.01892 z M 125.89483,980.26173 L 125.89483,980.6563 C 125.17257,981.20957 124.41066,981.67613 123.58816,982.02212 L 123.58816,981.65791 C 124.40698,981.29932 125.18425,980.83227 125.89483,980.26173 z M 109.83893,980.59559 C 110.01239,980.82696 109.8951,980.78344 110.41559,980.89912 C 110.50238,980.89912 109.94601,981.57118 109.65684,981.65791 C 109.57016,981.45549 109.86786,980.97158 109.83893,980.59559 z M 129.26385,980.80807 C 129.43741,981.15511 129.99378,981.4569 130.02271,981.68825 C 129.55996,981.54368 129.30603,981.41938 128.93006,981.50614 C 129.04578,981.50614 129.17716,980.98158 129.26385,980.80807 z M 131.75271,980.99017 C 131.66602,981.22154 132.14593,981.47866 132.11689,981.5365 C 131.74104,981.5365 131.05465,981.7186 131.05465,981.7186 C 131.05465,981.71861 131.11398,981.50757 131.08495,981.5365 C 131.1429,981.47866 131.86843,980.99017 131.75271,980.99017 z M 108.16962,981.26334 C 108.2563,981.55254 108.86621,981.86894 108.83738,981.84002 C 108.80846,981.78218 108.77669,981.96141 108.77669,981.96141 C 108.77669,981.96141 108.06285,981.77932 107.74475,981.77931 C 107.8026,981.72147 108.11177,981.49471 108.16962,981.26334 z M 130.59938,981.5972 C 130.80187,981.59721 130.99395,981.7604 130.99395,981.99176 C 130.99395,982.22313 130.80187,982.38634 130.59938,982.38634 C 130.36805,982.38635 130.1744,982.22313 130.1744,981.99176 C 130.1744,981.76042 130.36805,981.5972 130.59938,981.5972 z M 128.53549,981.68825 C 129.00865,981.64131 129.50862,981.712 130.0834,981.96141 C 130.2859,982.01927 127.00451,983.28515 124.89329,983.66111 L 126.04663,982.90231 C 127.00472,982.21546 127.74696,981.76649 128.53549,981.68825 z M 109.35336,981.77931 C 109.55575,981.7793 109.77823,981.94252 109.77823,982.17388 C 109.77823,982.40522 109.55575,982.56844 109.35336,982.56844 C 109.12193,982.56843 108.92838,982.40524 108.92838,982.17388 C 108.92838,981.9425 109.12193,981.77931 109.35336,981.77931 z M 111.38684,981.93107 C 112.66798,982.03817 113.6669,983.10574 114.96834,983.84321 C 113.20426,983.38049 110.71087,982.61482 109.93002,982.32564 L 109.99072,982.20424 C 110.50406,981.98011 110.95986,981.89537 111.38684,981.93107 z M 118.58014,982.35599 C 119.00501,982.4158 119.44798,982.44704 119.88527,982.44704 C 120.22641,982.44704 120.55408,982.42332 120.88691,982.38634 L 120.88691,982.72021 C 120.5443,982.75797 120.20537,982.78092 119.85497,982.78092 C 119.42074,982.78092 119.00301,982.74857 118.58014,982.68986 L 118.58014,982.35599 z M 108.6249,982.41669 C 108.72977,982.39862 108.80983,982.42529 108.86768,982.5988 L 107.41087,983.96461 C 107.20837,983.67543 108.00047,982.74196 108.26072,982.56844 C 108.39074,982.49616 108.52002,982.43478 108.6249,982.41669 z M 130.84216,982.50775 C 130.87287,982.50616 130.8935,982.52003 130.93326,982.53809 L 132.20799,983.81286 C 131.86106,983.8707 131.43355,983.64535 131.11535,983.32724 C 130.72498,982.91513 130.63314,982.60859 130.75116,982.53809 C 130.77084,982.52635 130.81155,982.50934 130.84216,982.50775 z M 130.1744,982.5988 C 130.1744,982.59879 130.32483,982.65808 130.29589,982.62915 C 130.32483,982.62915 130.1137,983.36475 130.1137,983.50935 C 129.82462,983.48043 129.80023,983.32724 129.59772,983.32724 C 129.7713,983.03802 130.1744,982.5988 130.1744,982.5988 z M 109.23196,982.78092 C 109.20304,982.80985 109.32296,982.84162 109.32296,982.84162 C 109.32296,982.84162 109.39228,983.28088 109.56574,983.57005 C 109.50788,983.57005 109.19157,983.38938 108.98907,983.4183 C 109.10479,983.21587 109.14518,982.83875 109.23196,982.78092 z" />
      <g
         id="g3117"
         transform="translate(-17.40906,6.202835)">
        <path
           id="path2559"
           style="font-size:854.18798828px;font-style:normal;font-variant:normal;font-weight:bold;font-stretch:normal;text-align:start;line-height:89.99999762%;writing-mode:lr-tb;text-anchor:start;fill:#333333;fill-opacity:1;stroke:none;stroke-width:1px;stroke-linecap:butt;stroke-linejoin:miter;stroke-opacity:1;font-family:Helvetica;-inkscape-font-specification:Helvetica Bold"
           d="M 541.25951,965.94996 L 541.25951,941.7568 L 541.25951,941.7568 L 544.43931,941.7568 L 547.64135,941.7568 L 547.64135,941.7568 L 547.64135,965.94996 L 547.64135,965.94996 L 544.46155,965.94996 L 541.25951,965.94996 L 541.25951,965.94996 M 541.1928,933.0179 L 547.68582,933.0179 L 547.68582,938.93278 L 541.1928,938.93278 L 541.1928,933.0179 M 563.08444,966.57258 C 559.30425,966.57258 556.29493,965.43852 554.05648,963.17041 C 551.83284,960.90231 550.72102,957.84111 550.72102,953.9868 C 550.72102,950.04356 551.83284,946.91565 554.05648,944.60305 C 556.29493,942.27567 559.30425,941.11197 563.08444,941.11194 C 566.89425,941.11197 569.91098,942.27567 572.13464,944.60305 C 574.35825,946.91565 575.47007,950.04356 575.47009,953.9868 C 575.47007,957.84111 574.35825,960.90231 572.13464,963.17041 C 569.91098,965.43852 566.89425,966.57258 563.08444,966.57258 L 563.08444,966.57258 M 563.08444,961.23585 C 564.98192,961.23586 566.42729,960.61324 567.42053,959.368 C 568.41374,958.12277 568.91035,956.3068 568.91037,953.92009 C 568.91035,951.4741 568.41374,949.62107 567.42053,948.361 C 566.42729,947.08613 564.98192,946.44869 563.08444,946.44867 C 561.18692,946.44869 559.74156,947.08613 558.74835,948.361 C 557.76994,949.62107 557.28074,951.4741 557.28075,953.92009 C 557.28074,956.3068 557.76994,958.12277 558.74835,959.368 C 559.74156,960.61324 561.18692,961.23586 563.08444,961.23585 L 563.08444,961.23585 M 601.321,956.98871 L 601.321,956.98871 C 600.97702,959.99803 599.79664,962.34767 597.77985,964.03763 C 595.76301,965.7276 593.13647,966.57258 589.9002,966.57258 C 586.03854,966.57258 583.05241,965.483 580.9418,963.30383 C 578.84681,961.12467 577.79932,958.019 577.79932,953.9868 C 577.79932,950.04356 578.8859,946.91565 581.05906,944.60305 C 583.24784,942.27567 586.19489,941.11197 589.9002,941.11194 C 593.18337,941.11197 595.87245,941.97177 597.96746,943.69136 C 600.06242,945.41099 601.18027,947.67169 601.321,950.47345 L 601.321,950.47345 L 594.47321,950.47345 L 594.47321,950.47345 C 594.41066,949.2727 593.95727,948.30172 593.11304,947.56049 C 592.28441,946.81929 591.21346,946.44869 589.9002,946.44867 C 588.2117,946.44869 586.92188,947.09354 586.03074,948.38323 C 585.15521,949.65813 584.71745,951.52599 584.71746,953.9868 C 584.71745,956.38833 585.15521,958.21912 586.03074,959.47918 C 586.92188,960.72442 588.2117,961.34704 589.9002,961.34703 C 591.11966,961.34704 592.15152,960.94678 592.99578,960.14627 C 593.84001,959.34577 594.33249,958.29325 594.47321,956.98871 L 594.47321,956.98871 L 601.321,956.98871" />
        <path
           style="fill:#9a9a9a;fill-opacity:1;fill-rule:evenodd;stroke:none;stroke-width:2;stroke-linecap:round;stroke-linejoin:round;marker:none;marker-start:none;marker-mid:none;marker-end:none;stroke-miterlimit:4;stroke-dashoffset:0;stroke-opacity:1;visibility:visible;display:inline;overflow:visible;enable-background:accumulate"
           d="M 605.05781,942.1461 L 612.37078,937.95479 L 619.68374,942.1461 L 619.68374,950.52874 L 612.37078,954.72006 L 605.05781,950.52874 L 605.05781,942.1461 z"
           id="path2568" />
        <path
           id="text2524"
           style="font-size:110.26600647px;font-style:normal;font-variant:normal;font-weight:bold;font-stretch:normal;text-align:start;line-height:89.99999762%;writing-mode:lr-tb;text-anchor:start;fill:#9a9a9a;fill-opacity:1;stroke:none;stroke-width:1px;stroke-linecap:butt;stroke-linejoin:miter;stroke-opacity:1;font-family:Helvetica;-inkscape-font-specification:Helvetica Bold"
           d="M 540.78551,982.32702 L 540.78551,974.91794 L 540.78551,974.91794 L 541.70157,974.91794 L 542.62404,974.91794 L 542.62404,974.91794 L 542.62404,982.32702 L 542.62404,982.32702 L 541.70798,982.32702 L 540.78551,982.32702 L 540.78551,982.32702 M 540.76629,972.24168 L 542.63685,972.24168 L 542.63685,974.05309 L 540.76629,974.05309 L 540.76629,972.24168 M 544.35367,982.32702 L 544.35367,974.91794 L 544.35367,974.91794 L 545.22489,974.91794 L 546.10252,974.91794 L 546.10252,974.91794 L 546.10252,976.01432 L 546.10252,976.01432 L 546.10252,976.01432 C 546.17512,975.88267 546.25413,975.75782 546.33954,975.63978 C 546.79223,975.0269 547.44992,974.72046 548.3126,974.72045 C 549.04716,974.72046 549.62156,974.95199 550.03583,975.41505 C 550.45435,975.87813 550.66361,976.52052 550.66362,977.34223 L 550.66362,982.32702 L 550.66362,982.32702 L 549.74756,982.32702 L 548.82509,982.32702 L 548.82509,982.32702 L 548.82509,977.69634 C 548.82508,977.23782 548.73112,976.8996 548.54322,976.68168 C 548.35958,976.45923 548.07557,976.34801 547.69122,976.348 C 547.20863,976.34801 546.83708,976.50236 546.57657,976.81107 C 546.32032,977.11978 546.1922,977.56469 546.1922,978.14579 L 546.1922,978.14579 L 546.1922,982.32702 L 546.1922,982.32702 L 545.27614,982.32702 L 544.35367,982.32702 L 544.35367,982.32702 M 556.32015,977.13794 L 556.32015,977.13794 C 556.32015,976.85193 556.20911,976.62267 555.98704,976.45015 C 555.76496,976.27764 555.47028,976.19138 555.103,976.19137 C 554.74853,976.19138 554.47094,976.25721 554.27022,976.38886 C 554.07376,976.51598 553.97554,976.69531 553.97554,976.92683 C 553.97554,977.09027 554.08871,977.23101 554.31506,977.34904 C 554.53713,977.46254 554.93217,977.58739 555.50018,977.72358 C 556.62764,977.99144 557.38141,978.28426 557.76151,978.60205 C 558.1416,978.91984 558.33164,979.41923 558.33165,980.10021 C 558.33164,980.82659 558.05404,981.41223 557.49886,981.85714 C 556.94794,982.29751 556.21978,982.51769 555.3144,982.51769 C 554.24246,982.51769 553.41608,982.29978 552.83527,981.86395 C 552.25872,981.42812 551.95123,980.79254 551.9128,979.9572 L 551.9128,979.9572 L 553.78336,979.9572 L 553.78336,979.9572 C 553.79617,980.2977 553.9371,980.56555 554.20616,980.76076 C 554.47948,980.95144 554.84889,981.04677 555.3144,981.04677 C 555.68168,981.04677 555.96781,980.98095 556.17281,980.84929 C 556.38207,980.71309 556.4867,980.52469 556.48671,980.28407 C 556.4867,980.1161 556.38634,979.97309 556.18562,979.85506 C 555.9849,979.74156 555.63257,979.62579 555.12863,979.50776 C 553.94992,979.22628 553.16197,978.92892 552.7648,978.61567 C 552.36762,978.30696 552.16904,977.828 552.16904,977.1788 C 552.16904,976.44334 552.42528,975.85089 552.93776,975.40144 C 553.45451,974.94746 554.13355,974.72046 554.97488,974.72045 C 555.92297,974.72046 556.68742,974.94292 557.26824,975.38782 C 557.84905,975.82819 558.13946,976.41156 558.13947,977.13794 L 558.13947,977.13794 L 556.32015,977.13794 M 562.87993,982.36788 C 562.57244,982.39512 562.19448,982.40874 561.74606,982.40874 C 561.09692,982.40874 560.62928,982.28616 560.34314,982.04101 C 560.06127,981.79131 559.92034,981.38499 559.92034,980.82205 L 559.92034,976.28671 L 559.92034,976.28671 L 558.95303,976.28671 L 558.95303,974.91794 L 559.92034,974.91794 L 559.92034,974.91794 L 559.92034,972.92266 L 561.75888,972.92266 L 561.75888,974.91794 L 561.75888,974.91794 L 562.87993,974.91794 L 562.87993,976.28671 L 561.75888,976.28671 L 561.75888,976.28671 L 561.75888,980.49518 C 561.75887,980.66769 561.80585,980.78119 561.89981,980.83567 C 561.99803,980.89015 562.19876,980.91739 562.50198,980.91739 L 562.87993,980.91739 L 562.87993,982.36788 M 564.12911,982.32702 L 564.12911,974.91794 L 564.12911,974.91794 L 565.04518,974.91794 L 565.96764,974.91794 L 565.96764,974.91794 L 565.96764,982.32702 L 565.96764,982.32702 L 565.05158,982.32702 L 564.12911,982.32702 L 564.12911,982.32702 M 564.10989,972.24168 L 565.98046,972.24168 L 565.98046,974.05309 L 564.10989,974.05309 L 564.10989,972.24168 M 570.90029,982.36788 C 570.5928,982.39512 570.21484,982.40874 569.76642,982.40874 C 569.11728,982.40874 568.64964,982.28616 568.3635,982.04101 C 568.08164,981.79131 567.9407,981.38499 567.9407,980.82205 L 567.9407,976.28671 L 567.9407,976.28671 L 566.97339,976.28671 L 566.97339,974.91794 L 567.9407,974.91794 L 567.9407,974.91794 L 567.9407,972.92266 L 569.77924,972.92266 L 569.77924,974.91794 L 569.77924,974.91794 L 570.90029,974.91794 L 570.90029,976.28671 L 569.77924,976.28671 L 569.77924,976.28671 L 569.77924,980.49518 C 569.77923,980.66769 569.82621,980.78119 569.92017,980.83567 C 570.01839,980.89015 570.21912,980.91739 570.52234,980.91739 L 570.90029,980.91739 L 570.90029,982.36788 M 573.93035,974.91794 L 573.93035,979.55542 C 573.93035,980.00941 574.02217,980.34536 574.20581,980.56328 C 574.38945,980.78119 574.67131,980.89015 575.05141,980.89015 C 575.52972,980.89015 575.897,980.73579 576.15324,980.42708 C 576.40948,980.11837 576.5376,979.67346 576.53761,979.09236 L 576.53761,979.09236 L 576.53761,974.91794 L 576.53761,974.91794 L 577.45367,974.91794 L 578.37614,974.91794 L 578.37614,974.91794 L 578.37614,982.32702 L 578.37614,982.32702 L 577.50492,982.32702 L 576.62729,982.32702 L 576.62729,982.32702 L 576.62729,981.21702 L 576.62729,981.21702 L 576.62729,981.21702 C 576.56323,981.35322 576.48635,981.48033 576.39667,981.59837 C 575.94397,982.21125 575.28842,982.51769 574.43002,982.51769 C 573.69546,982.51769 573.12105,982.28843 572.7068,981.8299 C 572.29681,981.36684 572.09181,980.72671 572.09182,979.90953 L 572.09182,974.91794 L 572.09182,974.91794 L 573.00788,974.91794 L 573.93035,974.91794 L 573.93035,974.91794 M 583.30238,982.36788 C 582.99489,982.39512 582.61693,982.40874 582.16851,982.40874 C 581.51937,982.40874 581.05173,982.28616 580.76559,982.04101 C 580.48373,981.79131 580.34279,981.38499 580.34279,980.82205 L 580.34279,976.28671 L 580.34279,976.28671 L 579.37548,976.28671 L 579.37548,974.91794 L 580.34279,974.91794 L 580.34279,974.91794 L 580.34279,972.92266 L 582.18133,972.92266 L 582.18133,974.91794 L 582.18133,974.91794 L 583.30238,974.91794 L 583.30238,976.28671 L 582.18133,976.28671 L 582.18133,976.28671 L 582.18133,980.49518 C 582.18132,980.66769 582.2283,980.78119 582.32226,980.83567 C 582.42048,980.89015 582.62121,980.91739 582.92443,980.91739 L 583.30238,980.91739 L 583.30238,982.36788 M 543.56312,993.97256 C 542.67138,993.97256 541.95113,993.62663 541.40236,992.93478 C 540.85788,992.24293 540.58565,991.33114 540.58565,990.1994 C 540.58565,989.13173 540.85788,988.27119 541.40236,987.61777 C 541.94684,986.96436 542.6628,986.63765 543.55026,986.63764 C 544.34339,986.63765 544.98219,986.97076 545.46665,987.63698 L 545.54382,987.73948 L 545.54382,987.73948 L 545.54382,984.37631 L 545.54382,984.37631 L 546.46343,984.37631 L 547.38947,984.37631 L 547.38947,984.37631 L 547.38947,993.79319 L 547.38947,993.79319 L 546.49558,993.79319 L 545.6017,993.79319 L 545.6017,993.79319 L 545.6017,992.90275 L 545.6017,992.90275 L 545.56954,992.94759 C 545.05936,993.6309 544.39055,993.97256 543.56312,993.97256 M 544.0583,988.22634 C 543.56526,988.22635 543.17941,988.41639 542.90075,988.79648 C 542.62208,989.1723 542.48274,989.69546 542.48274,990.36596 C 542.48274,991.02365 542.61993,991.53826 542.89432,991.90981 C 543.17298,992.27709 543.55883,992.46073 544.05187,992.46073 C 544.54918,992.46073 544.93717,992.26642 545.21585,991.87778 C 545.49451,991.48915 545.63385,990.94891 545.63385,990.25705 C 545.63385,989.62073 545.49451,989.12319 545.21585,988.76445 C 544.93717,988.40571 544.55132,988.22635 544.0583,988.22634 M 551.81388,993.97256 C 550.75065,993.97256 549.92965,993.64585 549.35087,992.99243 C 548.77639,992.33902 548.48914,991.40801 548.48914,990.1994 C 548.48914,989.08475 548.78282,988.21353 549.37017,987.58574 C 549.95752,986.95368 550.77209,986.63765 551.81388,986.63764 C 552.8814,986.63765 553.7024,986.96009 554.27689,987.60495 C 554.85566,988.24556 555.14505,989.15949 555.14506,990.34674 C 555.15362,990.48341 555.14291,990.6222 555.1129,990.76313 L 555.1129,990.76313 L 550.34765,990.76313 L 550.34765,990.76313 C 550.39052,991.31405 550.51271,991.72617 550.71421,991.9995 C 550.97144,992.34115 551.40016,992.51198 552.00038,992.51198 C 552.27904,992.51198 552.53628,992.43297 552.77208,992.27496 C 553.01216,992.11694 553.15578,991.9269 553.20294,991.70482 L 553.20294,991.70482 L 555.08075,991.70482 L 555.08075,991.70482 C 554.92212,992.41376 554.55341,992.96895 553.97464,993.37039 C 553.40015,993.77183 552.6799,993.97256 551.81388,993.97256 M 553.22224,989.59083 L 553.22224,989.59083 C 553.17936,989.1723 553.06789,988.8456 552.88783,988.6107 C 552.65203,988.29895 552.28548,988.14307 551.78816,988.14306 C 551.31228,988.14307 550.95001,988.32457 550.70135,988.68758 C 550.54701,988.9182 550.43554,989.21928 550.36695,989.59083 L 550.36695,989.59083 L 553.22224,989.59083 M 566.07105,991.21155 L 566.07105,991.21155 C 565.97672,992.07851 565.65303,992.75541 565.09999,993.24227 C 564.54693,993.72913 563.82668,993.97256 562.93923,993.97256 C 561.88028,993.97256 561.06142,993.65866 560.48265,993.03087 C 559.90816,992.40308 559.62092,991.50837 559.62092,990.34674 C 559.62092,989.21074 559.91888,988.30962 560.5148,987.64339 C 561.11501,986.9729 561.92315,986.63765 562.93923,986.63764 C 563.83954,986.63765 564.57694,986.88535 565.15144,987.38074 C 565.72592,987.87615 566.03245,988.52743 566.07105,989.33459 L 566.07105,989.33459 L 564.19324,989.33459 L 564.19324,989.33459 C 564.17609,988.98866 564.05176,988.70893 563.82025,988.49539 C 563.59303,988.28187 563.29935,988.1751 562.93923,988.17509 C 562.47621,988.1751 562.12251,988.36087 561.87814,988.73242 C 561.63805,989.0997 561.51801,989.63781 561.51801,990.34674 C 561.51801,991.03859 561.63805,991.56602 561.87814,991.92903 C 562.12251,992.28777 562.47621,992.46714 562.93923,992.46714 C 563.27363,992.46714 563.55658,992.35183 563.7881,992.12121 C 564.01961,991.8906 564.15465,991.58738 564.19324,991.21155 L 564.19324,991.21155 L 566.07105,991.21155 M 569.03566,993.97256 C 568.38829,993.97256 567.86739,993.78892 567.47297,993.42164 C 567.07854,993.05009 566.88133,992.56323 566.88133,991.96106 C 566.88133,991.32473 567.05925,990.81652 567.41509,990.43642 C 567.77093,990.05206 568.28968,989.81077 568.97135,989.71254 L 570.18678,989.54598 C 570.50403,989.50328 570.76769,989.43068 570.97777,989.32818 C 571.0678,989.28548 571.13639,989.2086 571.18356,989.09756 C 571.235,988.98653 571.25429,988.87335 571.24144,988.75804 C 571.21571,988.5616 571.11496,988.40785 570.93919,988.29681 C 570.72911,988.16442 570.42686,988.09823 570.03244,988.09822 C 569.68088,988.09823 569.4065,988.18364 569.20929,988.35446 C 569.01208,988.52529 568.90704,988.76659 568.89418,989.07834 L 568.89418,989.07834 L 567.1257,989.07834 L 567.1257,989.07834 C 567.16429,988.26265 567.44296,987.65194 567.96171,987.24622 C 568.48046,986.84051 569.24144,986.63765 570.24466,986.63764 C 571.11496,986.63765 571.80091,986.82129 572.30252,987.18856 C 572.80841,987.55158 573.06136,988.04911 573.06136,988.68117 L 573.06136,992.57604 C 573.06136,992.8878 573.08708,993.10774 573.13853,993.23586 C 573.18997,993.35971 573.29287,993.45794 573.44721,993.53054 L 573.44721,993.53695 L 573.44721,993.78678 L 572.45043,993.78678 L 571.45365,993.78678 L 571.45365,993.78678 C 571.37219,993.50492 571.3186,993.22946 571.29288,992.9604 L 571.28645,992.94759 C 570.70767,993.6309 569.95741,993.97256 569.03566,993.97256 M 571.2543,991.21796 L 571.2543,990.41721 L 571.2543,990.41721 C 571.03993,990.53679 570.75698,990.63288 570.40543,990.70548 L 569.72376,990.8336 C 569.40221,990.89339 569.15784,991.00443 568.99064,991.16671 C 568.82344,991.32473 568.73984,991.52545 568.73984,991.76888 C 568.73984,992.04648 568.81487,992.26428 568.96492,992.4223 C 569.11497,992.58031 569.32505,992.65932 569.59514,992.65932 C 570.18678,992.65932 570.65837,992.45219 571.00993,992.03793 C 571.07852,991.95679 571.13639,991.83721 571.18356,991.6792 C 571.23071,991.52118 571.25429,991.36744 571.2543,991.21796 M 577.90378,993.83162 C 577.5951,993.85725 577.21568,993.87006 576.76552,993.87006 C 576.11386,993.87006 575.64441,993.75475 575.35717,993.52413 C 575.07421,993.28925 574.93273,992.90702 574.93273,992.37745 L 574.93273,988.11103 L 574.93273,988.11103 L 573.96168,988.11103 L 573.96168,986.82342 L 574.93273,986.82342 L 574.93273,986.82342 L 574.93273,984.94645 L 576.77838,984.94645 L 576.77838,986.82342 L 576.77838,986.82342 L 577.90378,986.82342 L 577.90378,988.11103 L 576.77838,988.11103 L 576.77838,988.11103 L 576.77838,992.06996 C 576.77838,992.23225 576.82554,992.33902 576.91986,992.39027 C 577.01847,992.44151 577.21996,992.46714 577.52436,992.46714 L 577.90378,992.46714 L 577.90378,993.83162 M 580.7655,993.97256 C 580.11813,993.97256 579.59723,993.78892 579.20281,993.42164 C 578.80838,993.05009 578.61117,992.56323 578.61117,991.96106 C 578.61117,991.32473 578.78909,990.81652 579.14493,990.43642 C 579.50077,990.05206 580.01952,989.81077 580.70119,989.71254 L 581.91662,989.54598 C 582.23387,989.50328 582.49753,989.43068 582.70761,989.32818 C 582.79764,989.28548 582.86624,989.2086 582.9134,989.09756 C 582.96484,988.98653 582.98413,988.87335 582.97128,988.75804 C 582.94555,988.5616 582.8448,988.40785 582.66903,988.29681 C 582.45895,988.16442 582.1567,988.09823 581.76228,988.09822 C 581.41073,988.09823 581.13634,988.18364 580.93913,988.35446 C 580.74192,988.52529 580.63688,988.76659 580.62402,989.07834 L 580.62402,989.07834 L 578.85554,989.07834 L 578.85554,989.07834 C 578.89413,988.26265 579.1728,987.65194 579.69155,987.24622 C 580.2103,986.84051 580.97128,986.63765 581.9745,986.63764 C 582.8448,986.63765 583.53075,986.82129 584.03237,987.18856 C 584.53825,987.55158 584.7912,988.04911 584.7912,988.68117 L 584.7912,992.57604 C 584.7912,992.8878 584.81692,993.10774 584.86837,993.23586 C 584.91981,993.35971 585.02271,993.45794 585.17705,993.53054 L 585.17705,993.53695 L 585.17705,993.78678 L 584.18027,993.78678 L 583.18349,993.78678 L 583.18349,993.78678 C 583.10203,993.50492 583.04844,993.22946 583.02272,992.9604 L 583.01629,992.94759 C 582.43751,993.6309 581.68725,993.97256 580.7655,993.97256 M 582.98414,991.21796 L 582.98414,990.41721 L 582.98414,990.41721 C 582.76977,990.53679 582.48682,990.63288 582.13527,990.70548 L 581.4536,990.8336 C 581.13206,990.89339 580.88768,991.00443 580.72048,991.16671 C 580.55328,991.32473 580.46968,991.52545 580.46968,991.76888 C 580.46968,992.04648 580.54471,992.26428 580.69476,992.4223 C 580.84481,992.58031 581.05489,992.65932 581.32498,992.65932 C 581.91662,992.65932 582.38821,992.45219 582.73977,992.03793 C 582.80836,991.95679 582.86624,991.83721 582.9134,991.6792 C 582.96055,991.52118 582.98413,991.36744 582.98414,991.21796 M 586.46965,993.79319 L 586.46965,984.37631 L 586.46965,984.37631 L 587.38926,984.37631 L 588.3153,984.37631 L 588.3153,984.37631 L 588.3153,993.79319 L 588.3153,993.79319 L 587.39569,993.79319 L 586.46965,993.79319 L 586.46965,993.79319 M 591.92943,986.82342 L 591.92943,991.18593 C 591.92943,991.613 592.0216,991.92903 592.20596,992.13402 C 592.3903,992.33902 592.67326,992.44151 593.05483,992.44151 C 593.53499,992.44151 593.90369,992.29631 594.16093,992.0059 C 594.41816,991.7155 594.54678,991.29697 594.54678,990.75032 L 594.54678,990.75032 L 594.54678,986.82342 L 594.54678,986.82342 L 595.46639,986.82342 L 596.39243,986.82342 L 596.39243,986.82342 L 596.39243,993.79319 L 596.39243,993.79319 L 595.51784,993.79319 L 594.63681,993.79319 L 594.63681,993.79319 L 594.63681,992.749 L 594.63681,992.749 L 594.63681,992.749 C 594.5725,992.87713 594.49533,992.9967 594.4053,993.10774 C 593.95085,993.68428 593.29276,993.97256 592.43104,993.97256 C 591.69363,993.97256 591.117,993.75689 590.70114,993.32555 C 590.28957,992.88994 590.08378,992.28777 590.08378,991.51904 L 590.08378,986.82342 L 590.08378,986.82342 L 591.00339,986.82342 L 591.92943,986.82342 L 591.92943,986.82342 M 598.12232,993.79319 L 598.12232,986.82342 L 598.12232,986.82342 L 598.99692,986.82342 L 599.87794,986.82342 L 599.87794,986.82342 L 599.87794,987.85479 L 599.87794,987.85479 L 599.87794,987.85479 C 599.95082,987.73095 600.03014,987.6135 600.11588,987.50246 C 600.57033,986.92592 601.23056,986.63765 602.09658,986.63764 C 602.83398,986.63765 603.41061,986.85546 603.82648,987.29106 C 604.24662,987.72668 604.45669,988.33098 604.4567,989.10397 L 604.4567,993.79319 L 604.4567,993.79319 L 603.53709,993.79319 L 602.61105,993.79319 L 602.61105,993.79319 L 602.61105,989.43708 C 602.61104,989.00575 602.51672,988.68758 602.32809,988.48258 C 602.14374,988.27332 601.85864,988.16869 601.47279,988.16869 C 600.98833,988.16869 600.61534,988.31389 600.35382,988.6043 C 600.09659,988.89471 599.96797,989.31324 599.96797,989.85988 L 599.96797,989.85988 L 599.96797,993.79319 L 599.96797,993.79319 L 599.04836,993.79319 L 598.12232,993.79319 L 598.12232,993.79319 M 612.41807,986.82342 L 609.91005,993.94053 C 609.50704,995.11497 609.16192,995.85166 608.87468,996.15061 C 608.58744,996.44956 608.07511,996.59903 607.33771,996.59903 L 606.45669,996.57982 L 606.45669,995.10643 C 606.49956,995.12351 606.61746,995.13205 606.81039,995.13205 C 607.30341,995.13205 607.62495,995.03169 607.77501,994.83097 C 607.86933,994.70284 607.96365,994.43806 608.05797,994.03662 L 608.05797,994.03662 L 605.44705,986.82342 L 605.44705,986.82342 L 606.46312,986.82342 L 607.48562,986.82342 L 607.48562,986.82342 L 609.00973,991.99309 L 609.00973,991.99309 L 609.00973,991.99309 L 610.48882,986.82342 L 610.48882,986.82342 L 611.45345,986.82342 L 612.41807,986.82342 L 612.41807,986.82342 M 615.18333,993.97256 C 614.53596,993.97256 614.01506,993.78892 613.62064,993.42164 C 613.22621,993.05009 613.029,992.56323 613.029,991.96106 C 613.029,991.32473 613.20692,990.81652 613.56276,990.43642 C 613.9186,990.05206 614.43736,989.81077 615.11902,989.71254 L 616.33445,989.54598 C 616.6517,989.50328 616.91537,989.43068 617.12545,989.32818 C 617.21547,989.28548 617.28407,989.2086 617.33123,989.09756 C 617.38267,988.98653 617.40197,988.87335 617.38911,988.75804 C 617.36338,988.5616 617.26263,988.40785 617.08686,988.29681 C 616.87678,988.16442 616.57453,988.09823 616.18011,988.09822 C 615.82856,988.09823 615.55417,988.18364 615.35697,988.35446 C 615.15975,988.52529 615.05471,988.76659 615.04185,989.07834 L 615.04185,989.07834 L 613.27338,989.07834 L 613.27338,989.07834 C 613.31196,988.26265 613.59063,987.65194 614.10938,987.24622 C 614.62814,986.84051 615.38912,986.63765 616.39233,986.63764 C 617.26263,986.63765 617.94859,986.82129 618.4502,987.18856 C 618.95608,987.55158 619.20903,988.04911 619.20904,988.68117 L 619.20904,992.57604 C 619.20903,992.8878 619.23475,993.10774 619.28621,993.23586 C 619.33765,993.35971 619.44054,993.45794 619.59489,993.53054 L 619.59489,993.53695 L 619.59489,993.78678 L 618.59811,993.78678 L 617.60133,993.78678 L 617.60133,993.78678 C 617.51987,993.50492 617.46627,993.22946 617.44056,992.9604 L 617.43413,992.94759 C 616.85535,993.6309 616.10508,993.97256 615.18333,993.97256 M 617.40197,991.21796 L 617.40197,990.41721 L 617.40197,990.41721 C 617.18761,990.53679 616.90465,990.63288 616.5531,990.70548 L 615.87143,990.8336 C 615.54989,990.89339 615.30552,991.00443 615.13832,991.16671 C 614.97111,991.32473 614.88751,991.52545 614.88752,991.76888 C 614.88751,992.04648 614.96254,992.26428 615.11259,992.4223 C 615.26264,992.58031 615.47272,992.65932 615.74282,992.65932 C 616.33445,992.65932 616.80604,992.45219 617.1576,992.03793 C 617.22619,991.95679 617.28407,991.83721 617.33123,991.6792 C 617.37839,991.52118 617.40197,991.36744 617.40197,991.21796 M 589.89244,982.5177 C 588.75165,982.5177 587.84349,982.16765 587.16797,981.46757 C 586.49692,980.76748 586.1614,979.82258 586.1614,978.63289 C 586.1614,977.41574 586.49692,976.45026 587.16797,975.73644 C 587.84349,975.01805 588.75165,974.65886 589.89244,974.65885 C 591.04217,974.65886 591.95256,975.01805 592.62361,975.73644 C 593.29466,976.45026 593.63018,977.41574 593.63019,978.63289 C 593.63018,979.82258 593.29466,980.76748 592.62361,981.46757 C 591.95256,982.16765 591.04217,982.5177 589.89244,982.5177 L 589.89244,982.5177 M 589.89244,980.87043 C 590.46506,980.87043 590.90125,980.67825 591.20099,980.29389 C 591.50072,979.90952 591.65059,979.349 591.65059,978.6123 C 591.65059,977.8573 591.50072,977.28534 591.20099,976.89639 C 590.90125,976.50288 590.46506,976.30613 589.89244,976.30612 C 589.31981,976.30613 588.88362,976.50288 588.58389,976.89639 C 588.28863,977.28534 588.14099,977.8573 588.141,978.6123 C 588.14099,979.349 588.28863,979.90952 588.58389,980.29389 C 588.88362,980.67825 589.31981,980.87043 589.89244,980.87043 L 589.89244,980.87043 M 594.93203,972.23599 L 594.93203,972.23599 L 595.89163,972.23599 L 596.85794,972.23599 L 596.85794,972.23599 L 596.85794,975.83253 L 596.85794,975.83253 L 596.89821,975.77762 C 597.41715,975.03178 598.10162,974.65886 598.95162,974.65885 C 599.87767,974.65886 600.62253,975.0089 601.18622,975.70898 C 601.7499,976.40908 602.03174,977.33109 602.03175,978.47503 C 602.03174,979.6876 601.7499,980.66452 601.18622,981.40579 C 600.62253,982.14706 599.87767,982.5177 598.95162,982.5177 C 598.1061,982.5177 597.42162,982.16994 596.89821,981.47443 L 596.81768,981.36461 L 596.81768,981.36461 L 596.81768,982.32552 L 596.81768,982.32552 L 594.93203,982.32552 L 594.93203,982.32552 L 594.93203,972.23599 M 598.40136,980.89788 C 598.9203,980.89789 599.32517,980.70113 599.61596,980.30761 C 599.90675,979.90952 600.05214,979.35815 600.05215,978.65348 C 600.05214,977.93509 599.90675,977.37456 599.61596,976.97189 C 599.32517,976.56466 598.92254,976.36103 598.40807,976.36103 C 597.8936,976.36103 597.49097,976.56923 597.20018,976.98562 C 596.90939,977.40202 596.764,977.98085 596.764,978.72211 L 596.764,978.72211 L 596.764,978.72211 L 596.764,978.72211 C 596.764,979.40391 596.90939,979.93698 597.20018,980.32134 C 597.48649,980.7057 597.88689,980.89789 598.40136,980.89788 M 606.2795,982.5177 C 605.17002,982.5177 604.31332,982.16765 603.70937,981.46757 C 603.1099,980.76748 602.81016,979.76996 602.81016,978.47503 C 602.81016,977.28076 603.11661,976.34731 603.7295,975.67467 C 604.3424,974.99746 605.19239,974.65886 606.2795,974.65885 C 607.39344,974.65886 608.25014,975.00433 608.84962,975.69526 C 609.45356,976.38163 609.75553,977.36083 609.75554,978.63289 C 609.76448,978.77932 609.75329,978.92803 609.72199,979.07902 L 609.72199,979.07902 L 604.7495,979.07902 L 604.7495,979.07902 C 604.79424,979.6693 604.92173,980.11086 605.132,980.4037 C 605.40042,980.76976 605.84778,980.9528 606.4741,980.95279 C 606.76489,980.9528 607.03331,980.86814 607.27936,980.69884 C 607.52988,980.52954 607.67975,980.32592 607.72897,980.08798 L 607.72897,980.08798 L 609.68843,980.08798 L 609.68843,980.08798 C 609.5229,980.84755 609.13817,981.4424 608.53423,981.87252 C 607.93475,982.30264 607.18317,982.5177 606.2795,982.5177 M 607.7491,977.82298 L 607.7491,977.82298 C 607.70436,977.37456 607.58804,977.02452 607.40015,976.77285 C 607.15409,976.43882 606.7716,976.27181 606.25265,976.2718 C 605.75607,976.27181 605.37805,976.46628 605.11858,976.85521 C 604.95752,977.1023 604.84121,977.4249 604.76963,977.82298 L 604.76963,977.82298 L 607.7491,977.82298 M 611.02383,982.32552 L 611.02383,974.85789 L 611.02383,974.85789 L 611.93645,974.85789 L 612.85579,974.85789 L 612.85579,974.85789 L 612.85579,976.1963 L 612.85579,976.1963 L 612.85579,976.1963 C 612.9229,976.04988 612.99895,975.90804 613.08395,975.77076 C 613.53579,975.02949 614.1196,974.65886 614.8354,974.65885 L 615.27158,974.66571 L 615.27158,976.67676 C 615.10157,976.65846 614.90921,976.64931 614.69447,976.6493 C 614.10842,976.64931 613.67,976.79802 613.37921,977.09544 C 613.0929,977.39286 612.94974,977.84358 612.94974,978.44757 L 612.94974,978.44757 L 612.94974,982.32552 L 612.94974,982.32552 L 611.99014,982.32552 L 611.02383,982.32552 L 611.02383,982.32552 M 619.73406,982.3667 C 619.41196,982.39416 619.01604,982.40788 618.5463,982.40788 C 617.8663,982.40788 617.37644,982.28434 617.0767,982.03725 C 616.78144,981.78558 616.63381,981.37605 616.63381,980.80866 L 616.63381,976.23748 L 616.63381,976.23748 L 615.62052,976.23748 L 615.62052,974.85789 L 616.63381,974.85789 L 616.63381,974.85789 L 616.63381,972.84685 L 618.55972,972.84685 L 618.55972,974.85789 L 618.55972,974.85789 L 619.73406,974.85789 L 619.73406,976.23748 L 618.55972,976.23748 L 618.55972,976.23748 L 618.55972,980.4792 C 618.55972,980.65308 618.60893,980.76748 618.70736,980.82238 C 618.81025,980.87729 619.02051,980.90475 619.33814,980.90475 L 619.73406,980.90475 L 619.73406,982.3667" />
      </g>
    </g>
  </g>
</svg>
